<svg height='200' width='200'  fill="#EC5D57" xmlns="http://www.w3.org/2000/svg" xmlns:xlink="http://www.w3.org/1999/xlink" version="1.1" x="0px" y="0px" viewBox="0 0 100 100" enable-background="new 0 0 100 100" xml:space="preserve"><path d="M70.5,50l19.7-19.7c2.7-2.7,4.2-6.4,4.2-10.3S93,12.5,90.3,9.7S83.9,5.5,80,5.5S72.5,7,69.7,9.7L50,29.5L30.3,9.7  C27.5,7,23.9,5.5,20,5.5S12.5,7,9.7,9.7c-5.7,5.7-5.7,14.9,0,20.5L29.5,50L9.7,69.7c-5.7,5.7-5.7,14.9,0,20.5  c2.7,2.7,6.4,4.2,10.3,4.2s7.5-1.5,10.3-4.2L50,70.5l19.7,19.7c2.7,2.7,6.4,4.2,10.3,4.2s7.5-1.5,10.3-4.2c2.7-2.7,4.2-6.4,4.2-10.3  s-1.5-7.5-4.2-10.3L70.5,50z M84.6,84.6c-1.2,1.2-2.9,1.9-4.6,1.9s-3.4-0.7-4.6-1.9L50,59.2L24.6,84.6c-1.2,1.2-2.9,1.9-4.6,1.9  s-3.4-0.7-4.6-1.9c-2.5-2.5-2.5-6.7,0-9.2L40.8,50L15.4,24.6c-2.5-2.5-2.5-6.7,0-9.2c1.2-1.2,2.9-1.9,4.6-1.9c1.7,0,3.4,0.7,4.6,1.9  L50,40.8l25.4-25.4c1.2-1.2,2.9-1.9,4.6-1.9s3.4,0.7,4.6,1.9c1.2,1.2,1.9,2.9,1.9,4.6s-0.7,3.4-1.9,4.6L59.2,50l25.4,25.4  c1.2,1.2,1.9,2.9,1.9,4.6S85.8,83.4,84.6,84.6z"></path></svg>