<svg height='200' width='200'  fill="#70C041" xmlns="http://www.w3.org/2000/svg" xmlns:xlink="http://www.w3.org/1999/xlink" xml:space="preserve" style="shape-rendering:geometricPrecision;text-rendering:geometricPrecision;image-rendering:optimizeQuality;" viewBox="0 0 100 100" x="0px" y="0px" fill-rule="evenodd" clip-rule="evenodd"><defs><style type="text/css">
   
    .fil0 {fill:#70C041;fill-rule:nonzero}
   
  </style></defs><g><path class="fil0" d="M35.4959 43.2039c-2.11419,-2.47089 -5.83351,-2.76026 -8.3044,-0.646068 -2.47089,2.11419 -2.76026,5.83351 -0.646068,8.3044l13.7635 16.0584 4.47523 -3.82916 -4.4835 3.84334c2.12246,2.47561 5.85123,2.76262 8.32684,0.640163 0.164175,-0.140552 0.3189,-0.289372 0.464177,-0.442917l46.0456 -42.8555c2.38112,-2.21577 2.51577,-5.94572 0.300002,-8.32684 -2.21577,-2.38112 -5.94572,-2.51577 -8.32684,-0.300002l-41.8491 38.9483 -9.76543 -11.3942z"></path><path class="fil0" d="M47.9437 12.0686c10.7528,0 20.4887,4.3583 27.5341,11.406l0.269293 0.272837 -8.61975 8.07762c-4.90752,-4.9087 -11.6906,-7.94534 -19.1836,-7.94534 -7.49297,0 -14.2761,3.03664 -19.1836,7.94534 -4.9087,4.90752 -7.94534,11.6906 -7.94534,19.1836 0,7.49297 3.03664,14.2761 7.94534,19.1836 4.90752,4.9087 11.6906,7.94534 19.1836,7.94534 7.49297,0 14.2761,-3.03664 19.1836,-7.94534 4.9087,-4.90752 7.94534,-11.6906 7.94534,-19.1836 0,-1.74686 -0.165356,-3.45593 -0.480712,-5.11067l9.64141 -9.0355c1.71025,4.38429 2.65041,9.15598 2.65041,14.1462 0,10.7528 -4.3583,20.4887 -11.406,27.5341 -7.04533,7.04769 -16.7812,11.406 -27.5341,11.406 -10.7528,0 -20.4887,-4.3583 -27.5341,-11.406 -7.04769,-7.04533 -11.406,-16.7812 -11.406,-27.5341 0,-10.7528 4.3583,-20.4887 11.406,-27.5341 7.04533,-7.04769 16.7812,-11.406 27.5341,-11.406z"></path></g></svg>